<?xml version="1.0" encoding="utf-8"?>
<svg version="1.1" xmlns:xlink="http://www.w3.org/1999/xlink" width="49px" height="25px" xmlns="http://www.w3.org/2000/svg">
  <defs>
    <pattern id="BGPattern" patternUnits="userSpaceOnUse" alignment="0 0" imageRepeat="None" />
    <mask fill="white" id="Clip3">
      <path d="M 0 20  L 0 5  C 0 2.1999999999999886  2.2000000000000455 0  5 0  L 25.45205479452056 0  L 44 0  C 46.799999999999955 0  49 2.1999999999999886  49 5  L 49 20  C 49 22.80000000000001  46.799999999999955 25  44 25  L 5 25  C 2.2000000000000455 25  0 22.80000000000001  0 20  Z " fill-rule="evenodd" />
    </mask>
  </defs>
  <g transform="matrix(1 0 0 1 -1299 -346 )">
    <path d="M 0 20  L 0 5  C 0 2.1999999999999886  2.2000000000000455 0  5 0  L 25.45205479452056 0  L 44 0  C 46.799999999999955 0  49 2.1999999999999886  49 5  L 49 20  C 49 22.80000000000001  46.799999999999955 25  44 25  L 5 25  C 2.2000000000000455 25  0 22.80000000000001  0 20  Z " fill-rule="nonzero" fill="rgba(254, 243, 243, 0.996078431372549)" stroke="none" transform="matrix(1 0 0 1 1299 346 )" class="fill" />
    <path d="M 0 20  L 0 5  C 0 2.1999999999999886  2.2000000000000455 0  5 0  L 25.45205479452056 0  L 44 0  C 46.799999999999955 0  49 2.1999999999999886  49 5  L 49 20  C 49 22.80000000000001  46.799999999999955 25  44 25  L 5 25  C 2.2000000000000455 25  0 22.80000000000001  0 20  Z " stroke-width="2" stroke-dasharray="0" stroke="rgba(248, 152, 152, 0.996078431372549)" fill="none" transform="matrix(1 0 0 1 1299 346 )" class="stroke" mask="url(#Clip3)" />
  </g>
</svg>