<?xml version="1.0" encoding="utf-8"?>
<svg version="1.1" xmlns:xlink="http://www.w3.org/1999/xlink" width="12px" height="7px" xmlns="http://www.w3.org/2000/svg">
  <defs>
    <pattern id="BGPattern" patternUnits="userSpaceOnUse" alignment="0 0" imageRepeat="None" />
    <mask fill="white" id="Clip25">
      <path d="M 11.879759519038089 0.7175257731958844  C 11.959919839679372 0.7972508591065264  12 0.8889347079037792  12 0.9925773195876317  C 12 1.0962199312714844  11.959919839679372 1.1879037800687264  11.879759519038089 1.2676288659793897  L 6.276553106212418 6.84041237113404  C 6.196392785571135 6.920137457044703  6.104208416833671 6.960000000000015  6 6.960000000000015  C 5.895791583166329 6.960000000000015  5.803607214428865 6.920137457044703  5.723446893787582 6.84041237113404  L 0.12024048096191109 1.2676288659793897  C 0.040080160320627556 1.1879037800687264  0 1.0962199312714844  0 0.9925773195876317  C 0 0.8889347079037792  0.040080160320627556 0.7972508591065264  0.12024048096191109 0.7175257731958844  L 0.7214428857715518 0.11958762886597896  C 0.8016032064128069 0.03986254295532632  0.8937875751502986 0  0.99799599198397 0  C 1.1022044088176415 0  1.1943887775551048 0.03986254295532632  1.2745490981963883 0.11958762886597896  L 6 4.819381443298973  L 10.725450901803612 0.11958762886597896  C 10.805611222444895 0.03986254295532632  10.897795591182359 0  11.00200400801603 0  C 11.106212424849701 0  11.198396793587193 0.03986254295532632  11.278557114228448 0.11958762886597896  L 11.879759519038089 0.7175257731958844  Z " fill-rule="evenodd" />
    </mask>
  </defs>
  <g transform="matrix(1 0 0 1 -547 -549 )">
    <path d="M 11.879759519038089 0.7175257731958844  C 11.959919839679372 0.7972508591065264  12 0.8889347079037792  12 0.9925773195876317  C 12 1.0962199312714844  11.959919839679372 1.1879037800687264  11.879759519038089 1.2676288659793897  L 6.276553106212418 6.84041237113404  C 6.196392785571135 6.920137457044703  6.104208416833671 6.960000000000015  6 6.960000000000015  C 5.895791583166329 6.960000000000015  5.803607214428865 6.920137457044703  5.723446893787582 6.84041237113404  L 0.12024048096191109 1.2676288659793897  C 0.040080160320627556 1.1879037800687264  0 1.0962199312714844  0 0.9925773195876317  C 0 0.8889347079037792  0.040080160320627556 0.7972508591065264  0.12024048096191109 0.7175257731958844  L 0.7214428857715518 0.11958762886597896  C 0.8016032064128069 0.03986254295532632  0.8937875751502986 0  0.99799599198397 0  C 1.1022044088176415 0  1.1943887775551048 0.03986254295532632  1.2745490981963883 0.11958762886597896  L 6 4.819381443298973  L 10.725450901803612 0.11958762886597896  C 10.805611222444895 0.03986254295532632  10.897795591182359 0  11.00200400801603 0  C 11.106212424849701 0  11.198396793587193 0.03986254295532632  11.278557114228448 0.11958762886597896  L 11.879759519038089 0.7175257731958844  Z " fill-rule="nonzero" fill="rgba(255, 255, 255, 1)" stroke="none" transform="matrix(1 0 0 1 547 549 )" class="fill" />
    <path d="M 11.879759519038089 0.7175257731958844  C 11.959919839679372 0.7972508591065264  12 0.8889347079037792  12 0.9925773195876317  C 12 1.0962199312714844  11.959919839679372 1.1879037800687264  11.879759519038089 1.2676288659793897  L 6.276553106212418 6.84041237113404  C 6.196392785571135 6.920137457044703  6.104208416833671 6.960000000000015  6 6.960000000000015  C 5.895791583166329 6.960000000000015  5.803607214428865 6.920137457044703  5.723446893787582 6.84041237113404  L 0.12024048096191109 1.2676288659793897  C 0.040080160320627556 1.1879037800687264  0 1.0962199312714844  0 0.9925773195876317  C 0 0.8889347079037792  0.040080160320627556 0.7972508591065264  0.12024048096191109 0.7175257731958844  L 0.7214428857715518 0.11958762886597896  C 0.8016032064128069 0.03986254295532632  0.8937875751502986 0  0.99799599198397 0  C 1.1022044088176415 0  1.1943887775551048 0.03986254295532632  1.2745490981963883 0.11958762886597896  L 6 4.819381443298973  L 10.725450901803612 0.11958762886597896  C 10.805611222444895 0.03986254295532632  10.897795591182359 0  11.00200400801603 0  C 11.106212424849701 0  11.198396793587193 0.03986254295532632  11.278557114228448 0.11958762886597896  L 11.879759519038089 0.7175257731958844  Z " stroke-width="0" stroke-dasharray="0" stroke="rgba(255, 255, 255, 0)" fill="none" transform="matrix(1 0 0 1 547 549 )" class="stroke" mask="url(#Clip25)" />
  </g>
</svg>