<?xml version="1.0" encoding="utf-8"?>
<svg version="1.1" xmlns:xlink="http://www.w3.org/1999/xlink" width="15px" height="15px" xmlns="http://www.w3.org/2000/svg">
  <defs>
    <pattern id="BGPattern" patternUnits="userSpaceOnUse" alignment="0 0" imageRepeat="None" />
    <mask fill="white" id="Clip118">
      <path d="M 8.662109375 12.412109375  C 8.720703125 12.353515625  8.75 12.278645833333332  8.75 12.1875  L 8.75 10.3125  C 8.75 10.221354166666664  8.720703125 10.146484375000002  8.662109375 10.087890625000002  C 8.603515625 10.029296875000002  8.528645833333334 10.000000000000002  8.4375 10.000000000000002  L 6.5625 10.000000000000002  C 6.471354166666668 10.000000000000002  6.396484375 10.029296875000002  6.337890625 10.087890625000002  C 6.279296875 10.146484375000002  6.25 10.221354166666664  6.25 10.3125  L 6.25 12.1875  C 6.25 12.278645833333332  6.279296875 12.353515625  6.337890625 12.412109375  C 6.396484375 12.470703125  6.471354166666668 12.5  6.5625 12.5  L 8.4375 12.5  C 8.528645833333334 12.5  8.603515625 12.470703125  8.662109375 12.412109375  Z M 11.1279296875 6.416015625  C 11.209309895833334 6.175130208333333  11.25 5.911458333333333  11.25 5.625  C 11.25 5.052083333333332  11.0693359375 4.521484374999999  10.7080078125 4.033203125000001  C 10.3466796875 3.544921875  9.895833333333336 3.1673177083333326  9.35546875 2.900390625  C 8.815104166666668 2.6334635416666656  8.26171875 2.4999999999999996  7.695312500000001 2.4999999999999996  C 6.11328125 2.4999999999999996  4.905598958333334 3.193359375  4.072265625 4.580078124999999  C 3.9746093750000004 4.736328125000001  4.000651041666667 4.873046874999999  4.150390625 4.990234374999999  L 5.439453125 5.966796875000001  C 5.485026041666668 6.005859375  5.546875 6.025390625000001  5.625 6.025390625000001  C 5.729166666666667 6.025390625000001  5.810546875 5.986328124999999  5.869140625 5.908203125000001  C 6.214192708333333 5.465494791666666  6.494140625 5.166015624999999  6.708984375 5.009765625  C 6.930338541666667 4.853515625000001  7.210286458333333 4.775390625  7.548828125000001 4.775390625  C 7.861328124999999 4.775390625  8.1396484375 4.860026041666666  8.3837890625 5.029296875000001  C 8.6279296875 5.198567708333332  8.75 5.390624999999998  8.75 5.605468749999999  C 8.75 5.852864583333333  8.684895833333334 6.051432291666666  8.5546875 6.201171875000001  C 8.424479166666668 6.350911458333333  8.203125 6.497395833333333  7.890624999999999 6.640625000000001  C 7.48046875 6.822916666666666  7.1044921875 7.1044921875  6.7626953125 7.4853515625  C 6.4208984375 7.8662109375  6.25 8.274739583333334  6.25 8.710937500000002  L 6.25 9.062500000000002  C 6.25 9.153645833333334  6.279296875 9.228515625  6.337890625 9.287109375  C 6.396484375 9.345703125  6.471354166666668 9.375  6.5625 9.375  L 8.4375 9.375  C 8.528645833333334 9.375  8.603515625 9.345703125  8.662109375 9.287109375  C 8.720703125 9.228515625  8.75 9.153645833333334  8.75 9.062500000000002  C 8.75 8.938802083333332  8.819986979166668 8.777669270833332  8.9599609375 8.579101562500002  C 9.099934895833334 8.380533854166666  9.27734375 8.219401041666666  9.4921875 8.095703125000002  C 9.700520833333334 7.978515625000001  9.860026041666668 7.885742187499999  9.970703125 7.817382812500001  C 10.081380208333334 7.7490234375  10.231119791666666 7.635091145833332  10.419921875 7.475585937500001  C 10.608723958333334 7.316080729166667  10.753580729166668 7.159830729166666  10.8544921875 7.006835937500001  C 10.955403645833336 6.853841145833332  11.046549479166668 6.656901041666667  11.1279296875 6.416015625  Z M 13.994140625 3.7353515625  C 14.664713541666664 4.884440104166665  15 6.139322916666664  15 7.5  C 15 8.860677083333334  14.664713541666664 10.115559895833332  13.994140625 11.2646484375  C 13.323567708333336 12.413736979166666  12.413736979166666 13.323567708333334  11.2646484375 13.994140625  C 10.115559895833336 14.664713541666668  8.860677083333334 15  7.5 15  C 6.139322916666667 15  4.884440104166667 14.664713541666668  3.7353515625 13.994140625  C 2.5862630208333335 13.323567708333334  1.676432291666667 12.413736979166666  1.005859375 11.2646484375  C 0.33528645833333326 10.115559895833332  0 8.860677083333334  0 7.5  C 0 6.139322916666664  0.33528645833333326 4.884440104166665  1.005859375 3.7353515625  C 1.676432291666667 2.586263020833333  2.5862630208333335 1.6764322916666652  3.7353515625 1.0058593749999996  C 4.884440104166667 0.33528645833333204  6.139322916666667 0  7.5 0  C 8.860677083333334 0  10.115559895833336 0.33528645833333204  11.2646484375 1.0058593749999996  C 12.413736979166666 1.6764322916666652  13.323567708333336 2.586263020833333  13.994140625 3.7353515625  Z " fill-rule="evenodd" />
    </mask>
  </defs>
  <g transform="matrix(1 0 0 1 -198 -336 )">
    <path d="M 8.662109375 12.412109375  C 8.720703125 12.353515625  8.75 12.278645833333332  8.75 12.1875  L 8.75 10.3125  C 8.75 10.221354166666664  8.720703125 10.146484375000002  8.662109375 10.087890625000002  C 8.603515625 10.029296875000002  8.528645833333334 10.000000000000002  8.4375 10.000000000000002  L 6.5625 10.000000000000002  C 6.471354166666668 10.000000000000002  6.396484375 10.029296875000002  6.337890625 10.087890625000002  C 6.279296875 10.146484375000002  6.25 10.221354166666664  6.25 10.3125  L 6.25 12.1875  C 6.25 12.278645833333332  6.279296875 12.353515625  6.337890625 12.412109375  C 6.396484375 12.470703125  6.471354166666668 12.5  6.5625 12.5  L 8.4375 12.5  C 8.528645833333334 12.5  8.603515625 12.470703125  8.662109375 12.412109375  Z M 11.1279296875 6.416015625  C 11.209309895833334 6.175130208333333  11.25 5.911458333333333  11.25 5.625  C 11.25 5.052083333333332  11.0693359375 4.521484374999999  10.7080078125 4.033203125000001  C 10.3466796875 3.544921875  9.895833333333336 3.1673177083333326  9.35546875 2.900390625  C 8.815104166666668 2.6334635416666656  8.26171875 2.4999999999999996  7.695312500000001 2.4999999999999996  C 6.11328125 2.4999999999999996  4.905598958333334 3.193359375  4.072265625 4.580078124999999  C 3.9746093750000004 4.736328125000001  4.000651041666667 4.873046874999999  4.150390625 4.990234374999999  L 5.439453125 5.966796875000001  C 5.485026041666668 6.005859375  5.546875 6.025390625000001  5.625 6.025390625000001  C 5.729166666666667 6.025390625000001  5.810546875 5.986328124999999  5.869140625 5.908203125000001  C 6.214192708333333 5.465494791666666  6.494140625 5.166015624999999  6.708984375 5.009765625  C 6.930338541666667 4.853515625000001  7.210286458333333 4.775390625  7.548828125000001 4.775390625  C 7.861328124999999 4.775390625  8.1396484375 4.860026041666666  8.3837890625 5.029296875000001  C 8.6279296875 5.198567708333332  8.75 5.390624999999998  8.75 5.605468749999999  C 8.75 5.852864583333333  8.684895833333334 6.051432291666666  8.5546875 6.201171875000001  C 8.424479166666668 6.350911458333333  8.203125 6.497395833333333  7.890624999999999 6.640625000000001  C 7.48046875 6.822916666666666  7.1044921875 7.1044921875  6.7626953125 7.4853515625  C 6.4208984375 7.8662109375  6.25 8.274739583333334  6.25 8.710937500000002  L 6.25 9.062500000000002  C 6.25 9.153645833333334  6.279296875 9.228515625  6.337890625 9.287109375  C 6.396484375 9.345703125  6.471354166666668 9.375  6.5625 9.375  L 8.4375 9.375  C 8.528645833333334 9.375  8.603515625 9.345703125  8.662109375 9.287109375  C 8.720703125 9.228515625  8.75 9.153645833333334  8.75 9.062500000000002  C 8.75 8.938802083333332  8.819986979166668 8.777669270833332  8.9599609375 8.579101562500002  C 9.099934895833334 8.380533854166666  9.27734375 8.219401041666666  9.4921875 8.095703125000002  C 9.700520833333334 7.978515625000001  9.860026041666668 7.885742187499999  9.970703125 7.817382812500001  C 10.081380208333334 7.7490234375  10.231119791666666 7.635091145833332  10.419921875 7.475585937500001  C 10.608723958333334 7.316080729166667  10.753580729166668 7.159830729166666  10.8544921875 7.006835937500001  C 10.955403645833336 6.853841145833332  11.046549479166668 6.656901041666667  11.1279296875 6.416015625  Z M 13.994140625 3.7353515625  C 14.664713541666664 4.884440104166665  15 6.139322916666664  15 7.5  C 15 8.860677083333334  14.664713541666664 10.115559895833332  13.994140625 11.2646484375  C 13.323567708333336 12.413736979166666  12.413736979166666 13.323567708333334  11.2646484375 13.994140625  C 10.115559895833336 14.664713541666668  8.860677083333334 15  7.5 15  C 6.139322916666667 15  4.884440104166667 14.664713541666668  3.7353515625 13.994140625  C 2.5862630208333335 13.323567708333334  1.676432291666667 12.413736979166666  1.005859375 11.2646484375  C 0.33528645833333326 10.115559895833332  0 8.860677083333334  0 7.5  C 0 6.139322916666664  0.33528645833333326 4.884440104166665  1.005859375 3.7353515625  C 1.676432291666667 2.586263020833333  2.5862630208333335 1.6764322916666652  3.7353515625 1.0058593749999996  C 4.884440104166667 0.33528645833333204  6.139322916666667 0  7.5 0  C 8.860677083333334 0  10.115559895833336 0.33528645833333204  11.2646484375 1.0058593749999996  C 12.413736979166666 1.6764322916666652  13.323567708333336 2.586263020833333  13.994140625 3.7353515625  Z " fill-rule="nonzero" fill="rgba(0, 0, 0, 1)" stroke="none" transform="matrix(1 0 0 1 198 336 )" class="fill" />
    <path d="M 8.662109375 12.412109375  C 8.720703125 12.353515625  8.75 12.278645833333332  8.75 12.1875  L 8.75 10.3125  C 8.75 10.221354166666664  8.720703125 10.146484375000002  8.662109375 10.087890625000002  C 8.603515625 10.029296875000002  8.528645833333334 10.000000000000002  8.4375 10.000000000000002  L 6.5625 10.000000000000002  C 6.471354166666668 10.000000000000002  6.396484375 10.029296875000002  6.337890625 10.087890625000002  C 6.279296875 10.146484375000002  6.25 10.221354166666664  6.25 10.3125  L 6.25 12.1875  C 6.25 12.278645833333332  6.279296875 12.353515625  6.337890625 12.412109375  C 6.396484375 12.470703125  6.471354166666668 12.5  6.5625 12.5  L 8.4375 12.5  C 8.528645833333334 12.5  8.603515625 12.470703125  8.662109375 12.412109375  Z " stroke-width="0" stroke-dasharray="0" stroke="rgba(255, 255, 255, 0)" fill="none" transform="matrix(1 0 0 1 198 336 )" class="stroke" mask="url(#Clip118)" />
    <path d="M 11.1279296875 6.416015625  C 11.209309895833334 6.175130208333333  11.25 5.911458333333333  11.25 5.625  C 11.25 5.052083333333332  11.0693359375 4.521484374999999  10.7080078125 4.033203125000001  C 10.3466796875 3.544921875  9.895833333333336 3.1673177083333326  9.35546875 2.900390625  C 8.815104166666668 2.6334635416666656  8.26171875 2.4999999999999996  7.695312500000001 2.4999999999999996  C 6.11328125 2.4999999999999996  4.905598958333334 3.193359375  4.072265625 4.580078124999999  C 3.9746093750000004 4.736328125000001  4.000651041666667 4.873046874999999  4.150390625 4.990234374999999  L 5.439453125 5.966796875000001  C 5.485026041666668 6.005859375  5.546875 6.025390625000001  5.625 6.025390625000001  C 5.729166666666667 6.025390625000001  5.810546875 5.986328124999999  5.869140625 5.908203125000001  C 6.214192708333333 5.465494791666666  6.494140625 5.166015624999999  6.708984375 5.009765625  C 6.930338541666667 4.853515625000001  7.210286458333333 4.775390625  7.548828125000001 4.775390625  C 7.861328124999999 4.775390625  8.1396484375 4.860026041666666  8.3837890625 5.029296875000001  C 8.6279296875 5.198567708333332  8.75 5.390624999999998  8.75 5.605468749999999  C 8.75 5.852864583333333  8.684895833333334 6.051432291666666  8.5546875 6.201171875000001  C 8.424479166666668 6.350911458333333  8.203125 6.497395833333333  7.890624999999999 6.640625000000001  C 7.48046875 6.822916666666666  7.1044921875 7.1044921875  6.7626953125 7.4853515625  C 6.4208984375 7.8662109375  6.25 8.274739583333334  6.25 8.710937500000002  L 6.25 9.062500000000002  C 6.25 9.153645833333334  6.279296875 9.228515625  6.337890625 9.287109375  C 6.396484375 9.345703125  6.471354166666668 9.375  6.5625 9.375  L 8.4375 9.375  C 8.528645833333334 9.375  8.603515625 9.345703125  8.662109375 9.287109375  C 8.720703125 9.228515625  8.75 9.153645833333334  8.75 9.062500000000002  C 8.75 8.938802083333332  8.819986979166668 8.777669270833332  8.9599609375 8.579101562500002  C 9.099934895833334 8.380533854166666  9.27734375 8.219401041666666  9.4921875 8.095703125000002  C 9.700520833333334 7.978515625000001  9.860026041666668 7.885742187499999  9.970703125 7.817382812500001  C 10.081380208333334 7.7490234375  10.231119791666666 7.635091145833332  10.419921875 7.475585937500001  C 10.608723958333334 7.316080729166667  10.753580729166668 7.159830729166666  10.8544921875 7.006835937500001  C 10.955403645833336 6.853841145833332  11.046549479166668 6.656901041666667  11.1279296875 6.416015625  Z " stroke-width="0" stroke-dasharray="0" stroke="rgba(255, 255, 255, 0)" fill="none" transform="matrix(1 0 0 1 198 336 )" class="stroke" mask="url(#Clip118)" />
    <path d="M 13.994140625 3.7353515625  C 14.664713541666664 4.884440104166665  15 6.139322916666664  15 7.5  C 15 8.860677083333334  14.664713541666664 10.115559895833332  13.994140625 11.2646484375  C 13.323567708333336 12.413736979166666  12.413736979166666 13.323567708333334  11.2646484375 13.994140625  C 10.115559895833336 14.664713541666668  8.860677083333334 15  7.5 15  C 6.139322916666667 15  4.884440104166667 14.664713541666668  3.7353515625 13.994140625  C 2.5862630208333335 13.323567708333334  1.676432291666667 12.413736979166666  1.005859375 11.2646484375  C 0.33528645833333326 10.115559895833332  0 8.860677083333334  0 7.5  C 0 6.139322916666664  0.33528645833333326 4.884440104166665  1.005859375 3.7353515625  C 1.676432291666667 2.586263020833333  2.5862630208333335 1.6764322916666652  3.7353515625 1.0058593749999996  C 4.884440104166667 0.33528645833333204  6.139322916666667 0  7.5 0  C 8.860677083333334 0  10.115559895833336 0.33528645833333204  11.2646484375 1.0058593749999996  C 12.413736979166666 1.6764322916666652  13.323567708333336 2.586263020833333  13.994140625 3.7353515625  Z " stroke-width="0" stroke-dasharray="0" stroke="rgba(255, 255, 255, 0)" fill="none" transform="matrix(1 0 0 1 198 336 )" class="stroke" mask="url(#Clip118)" />
  </g>
</svg>