<?xml version="1.0" encoding="utf-8"?>
<svg version="1.1" xmlns:xlink="http://www.w3.org/1999/xlink" width="25px" height="25px" xmlns="http://www.w3.org/2000/svg">
  <defs>
    <pattern id="BGPattern" patternUnits="userSpaceOnUse" alignment="0 0" imageRepeat="None" />
    <mask fill="white" id="Clip76">
      <path d="M 24.410774410774412 18.686868686868685  C 24.803591470258137 19.07968574635241  25 19.55667789001122  25 20.117845117845118  C 25 20.679012345679016  24.803591470258137 21.15600448933782  24.410774410774412 21.548821548821547  L 21.548821548821547 24.410774410774412  C 21.156004489337825 24.803591470258137  20.679012345679013 25  20.117845117845118 25  C 19.556677890011226 25  19.079685746352414 24.803591470258137  18.68686868686869 24.410774410774412  L 12.5 18.223905723905727  L 6.313131313131313 24.410774410774412  C 5.920314253647588 24.803591470258137  5.4433221099887765 25  4.882154882154882 25  C 4.320987654320988 25  3.843995510662178 24.803591470258137  3.4511784511784516 24.410774410774412  L 0.5892255892255892 21.548821548821547  C 0.19640852974186326 21.15600448933782  0 20.679012345679016  0 20.117845117845118  C 0 19.55667789001122  0.19640852974186326 19.07968574635241  0.5892255892255892 18.686868686868685  L 6.776094276094276 12.5  L 0.5892255892255892 6.313131313131312  C 0.19640852974186326 5.920314253647585  0 5.4433221099887765  0 4.882154882154882  C 0 4.320987654320987  0.19640852974186326 3.8439955106621735  0.5892255892255892 3.451178451178452  L 3.4511784511784516 0.5892255892255893  C 3.843995510662178 0.19640852974186218  4.320987654320988 0  4.882154882154882 0  C 5.4433221099887765 0  5.920314253647588 0.19640852974186218  6.313131313131313 0.5892255892255893  L 12.5 6.776094276094277  L 18.68686868686869 0.5892255892255893  C 19.079685746352414 0.19640852974186218  19.556677890011226 0  20.117845117845118 0  C 20.679012345679013 0  21.156004489337825 0.19640852974186218  21.548821548821547 0.5892255892255893  L 24.410774410774412 3.451178451178452  C 24.803591470258137 3.8439955106621735  25 4.320987654320987  25 4.882154882154882  C 25 5.4433221099887765  24.803591470258137 5.920314253647585  24.410774410774412 6.313131313131312  L 18.223905723905723 12.5  L 24.410774410774412 18.686868686868685  Z " fill-rule="evenodd" />
    </mask>
  </defs>
  <g transform="matrix(1 0 0 1 -425 0 )">
    <path d="M 24.410774410774412 18.686868686868685  C 24.803591470258137 19.07968574635241  25 19.55667789001122  25 20.117845117845118  C 25 20.679012345679016  24.803591470258137 21.15600448933782  24.410774410774412 21.548821548821547  L 21.548821548821547 24.410774410774412  C 21.156004489337825 24.803591470258137  20.679012345679013 25  20.117845117845118 25  C 19.556677890011226 25  19.079685746352414 24.803591470258137  18.68686868686869 24.410774410774412  L 12.5 18.223905723905727  L 6.313131313131313 24.410774410774412  C 5.920314253647588 24.803591470258137  5.4433221099887765 25  4.882154882154882 25  C 4.320987654320988 25  3.843995510662178 24.803591470258137  3.4511784511784516 24.410774410774412  L 0.5892255892255892 21.548821548821547  C 0.19640852974186326 21.15600448933782  0 20.679012345679016  0 20.117845117845118  C 0 19.55667789001122  0.19640852974186326 19.07968574635241  0.5892255892255892 18.686868686868685  L 6.776094276094276 12.5  L 0.5892255892255892 6.313131313131312  C 0.19640852974186326 5.920314253647585  0 5.4433221099887765  0 4.882154882154882  C 0 4.320987654320987  0.19640852974186326 3.8439955106621735  0.5892255892255892 3.451178451178452  L 3.4511784511784516 0.5892255892255893  C 3.843995510662178 0.19640852974186218  4.320987654320988 0  4.882154882154882 0  C 5.4433221099887765 0  5.920314253647588 0.19640852974186218  6.313131313131313 0.5892255892255893  L 12.5 6.776094276094277  L 18.68686868686869 0.5892255892255893  C 19.079685746352414 0.19640852974186218  19.556677890011226 0  20.117845117845118 0  C 20.679012345679013 0  21.156004489337825 0.19640852974186218  21.548821548821547 0.5892255892255893  L 24.410774410774412 3.451178451178452  C 24.803591470258137 3.8439955106621735  25 4.320987654320987  25 4.882154882154882  C 25 5.4433221099887765  24.803591470258137 5.920314253647585  24.410774410774412 6.313131313131312  L 18.223905723905723 12.5  L 24.410774410774412 18.686868686868685  Z " fill-rule="nonzero" fill="rgba(0, 0, 0, 1)" stroke="none" transform="matrix(1 0 0 1 425 0 )" class="fill" />
    <path d="M 24.410774410774412 18.686868686868685  C 24.803591470258137 19.07968574635241  25 19.55667789001122  25 20.117845117845118  C 25 20.679012345679016  24.803591470258137 21.15600448933782  24.410774410774412 21.548821548821547  L 21.548821548821547 24.410774410774412  C 21.156004489337825 24.803591470258137  20.679012345679013 25  20.117845117845118 25  C 19.556677890011226 25  19.079685746352414 24.803591470258137  18.68686868686869 24.410774410774412  L 12.5 18.223905723905727  L 6.313131313131313 24.410774410774412  C 5.920314253647588 24.803591470258137  5.4433221099887765 25  4.882154882154882 25  C 4.320987654320988 25  3.843995510662178 24.803591470258137  3.4511784511784516 24.410774410774412  L 0.5892255892255892 21.548821548821547  C 0.19640852974186326 21.15600448933782  0 20.679012345679016  0 20.117845117845118  C 0 19.55667789001122  0.19640852974186326 19.07968574635241  0.5892255892255892 18.686868686868685  L 6.776094276094276 12.5  L 0.5892255892255892 6.313131313131312  C 0.19640852974186326 5.920314253647585  0 5.4433221099887765  0 4.882154882154882  C 0 4.320987654320987  0.19640852974186326 3.8439955106621735  0.5892255892255892 3.451178451178452  L 3.4511784511784516 0.5892255892255893  C 3.843995510662178 0.19640852974186218  4.320987654320988 0  4.882154882154882 0  C 5.4433221099887765 0  5.920314253647588 0.19640852974186218  6.313131313131313 0.5892255892255893  L 12.5 6.776094276094277  L 18.68686868686869 0.5892255892255893  C 19.079685746352414 0.19640852974186218  19.556677890011226 0  20.117845117845118 0  C 20.679012345679013 0  21.156004489337825 0.19640852974186218  21.548821548821547 0.5892255892255893  L 24.410774410774412 3.451178451178452  C 24.803591470258137 3.8439955106621735  25 4.320987654320987  25 4.882154882154882  C 25 5.4433221099887765  24.803591470258137 5.920314253647585  24.410774410774412 6.313131313131312  L 18.223905723905723 12.5  L 24.410774410774412 18.686868686868685  Z " stroke-width="0" stroke-dasharray="0" stroke="rgba(255, 255, 255, 0)" fill="none" transform="matrix(1 0 0 1 425 0 )" class="stroke" mask="url(#Clip76)" />
  </g>
</svg>