<?xml version="1.0" encoding="utf-8"?>
<svg version="1.1" xmlns:xlink="http://www.w3.org/1999/xlink" width="25px" height="25px" xmlns="http://www.w3.org/2000/svg">
  <defs>
    <pattern id="BGPattern" patternUnits="userSpaceOnUse" alignment="0 0" imageRepeat="None" />
    <mask fill="white" id="Clip14">
      <path d="M 20.21484375 20.21484375  C 20.627170138888893 19.802517361111107  20.833333333333336 19.314236111111107  20.833333333333336 18.75  C 20.833333333333336 18.18576388888889  20.627170138888893 17.69748263888889  20.21484375 17.28515625  C 19.802517361111114 16.87282986111111  19.314236111111114 16.666666666666668  18.75 16.666666666666668  C 18.185763888888893 16.666666666666668  17.697482638888893 16.87282986111111  17.28515625 17.28515625  C 16.872829861111114 17.69748263888889  16.666666666666664 18.18576388888889  16.666666666666664 18.75  C 16.666666666666664 19.314236111111107  16.872829861111114 19.802517361111107  17.28515625 20.21484375  C 17.697482638888893 20.627170138888886  18.185763888888893 20.833333333333336  18.75 20.833333333333336  C 19.314236111111114 20.833333333333336  19.802517361111114 20.627170138888886  20.21484375 20.21484375  Z M 7.71484375 7.71484375  C 8.12717013888889 7.302517361111108  8.333333333333332 6.814236111111108  8.333333333333332 6.25  C 8.333333333333332 5.685763888888887  8.12717013888889 5.197482638888887  7.71484375 4.78515625  C 7.302517361111112 4.372829861111108  6.814236111111112 4.166666666666666  6.25 4.166666666666666  C 5.685763888888889 4.166666666666666  5.197482638888889 4.372829861111108  4.78515625 4.78515625  C 4.372829861111112 5.197482638888887  4.166666666666666 5.685763888888887  4.166666666666666 6.25  C 4.166666666666666 6.814236111111108  4.372829861111112 7.302517361111108  4.78515625 7.71484375  C 5.197482638888889 8.127170138888888  5.685763888888889 8.333333333333334  6.25 8.333333333333334  C 6.814236111111112 8.333333333333334  7.302517361111112 8.127170138888888  7.71484375 7.71484375  Z M 23.1689453125 14.3310546875  C 24.3896484375 15.5517578125  25 17.024739583333332  25 18.75  C 25 20.475260416666664  24.3896484375 21.9482421875  23.1689453125 23.1689453125  C 21.9482421875 24.3896484375  20.475260416666664 25  18.75 25  C 17.024739583333336 25  15.551757812500004 24.3896484375  14.3310546875 23.1689453125  C 13.1103515625 21.9482421875  12.5 20.475260416666664  12.5 18.75  C 12.5 17.024739583333332  13.1103515625 15.5517578125  14.3310546875 14.3310546875  C 15.551757812500004 13.1103515625  17.024739583333336 12.5  18.75 12.5  C 20.475260416666664 12.5  21.9482421875 13.1103515625  23.1689453125 14.3310546875  Z M 23.128255208333336 0.30924479166666574  C 23.33441840277778 0.5154079861111077  23.4375 0.7595486111111077  23.4375 1.0416666666666656  C 23.4375 1.2586805555555554  23.366970486111114 1.46484375  23.225911458333336 1.66015625  L 6.038411458333334 24.576822916666664  C 5.832248263888889 24.85894097222222  5.555555555555556 25  5.208333333333334 25  L 2.604166666666667 25  C 2.3220486111111116 25  2.077907986111111 24.89691840277778  1.8717447916666667 24.690755208333336  C 1.665581597222222 24.484592013888886  1.5625 24.240451388888886  1.5625 23.958333333333336  C 1.5625 23.741319444444446  1.6330295138888888 23.53515625  1.7740885416666667 23.33984375  L 18.961588541666664 0.42317708333333426  C 19.167751736111114 0.14105902777777624  19.444444444444446 0  19.791666666666664 0  L 22.395833333333336 0  C 22.677951388888893 0  22.922092013888893 0.10308159722222099  23.128255208333336 0.30924479166666574  Z M 10.6689453125 1.8310546875  C 11.8896484375 3.0517578125  12.5 4.524739583333334  12.5 6.25  C 12.5 7.975260416666666  11.8896484375 9.4482421875  10.6689453125 10.6689453125  C 9.4482421875 11.8896484375  7.975260416666667 12.5  6.25 12.5  C 4.524739583333334 12.5  3.0517578125000004 11.8896484375  1.8310546875 10.6689453125  C 0.6103515625 9.4482421875  0 7.975260416666666  0 6.25  C 0 4.524739583333334  0.6103515625 3.0517578125  1.8310546875 1.8310546875  C 3.0517578125000004 0.6103515625  4.524739583333334 0  6.25 0  C 7.975260416666667 0  9.4482421875 0.6103515625  10.6689453125 1.8310546875  Z " fill-rule="evenodd" />
    </mask>
  </defs>
  <g transform="matrix(1 0 0 1 -286 -99 )">
    <path d="M 20.21484375 20.21484375  C 20.627170138888893 19.802517361111107  20.833333333333336 19.314236111111107  20.833333333333336 18.75  C 20.833333333333336 18.18576388888889  20.627170138888893 17.69748263888889  20.21484375 17.28515625  C 19.802517361111114 16.87282986111111  19.314236111111114 16.666666666666668  18.75 16.666666666666668  C 18.185763888888893 16.666666666666668  17.697482638888893 16.87282986111111  17.28515625 17.28515625  C 16.872829861111114 17.69748263888889  16.666666666666664 18.18576388888889  16.666666666666664 18.75  C 16.666666666666664 19.314236111111107  16.872829861111114 19.802517361111107  17.28515625 20.21484375  C 17.697482638888893 20.627170138888886  18.185763888888893 20.833333333333336  18.75 20.833333333333336  C 19.314236111111114 20.833333333333336  19.802517361111114 20.627170138888886  20.21484375 20.21484375  Z M 7.71484375 7.71484375  C 8.12717013888889 7.302517361111108  8.333333333333332 6.814236111111108  8.333333333333332 6.25  C 8.333333333333332 5.685763888888887  8.12717013888889 5.197482638888887  7.71484375 4.78515625  C 7.302517361111112 4.372829861111108  6.814236111111112 4.166666666666666  6.25 4.166666666666666  C 5.685763888888889 4.166666666666666  5.197482638888889 4.372829861111108  4.78515625 4.78515625  C 4.372829861111112 5.197482638888887  4.166666666666666 5.685763888888887  4.166666666666666 6.25  C 4.166666666666666 6.814236111111108  4.372829861111112 7.302517361111108  4.78515625 7.71484375  C 5.197482638888889 8.127170138888888  5.685763888888889 8.333333333333334  6.25 8.333333333333334  C 6.814236111111112 8.333333333333334  7.302517361111112 8.127170138888888  7.71484375 7.71484375  Z M 23.1689453125 14.3310546875  C 24.3896484375 15.5517578125  25 17.024739583333332  25 18.75  C 25 20.475260416666664  24.3896484375 21.9482421875  23.1689453125 23.1689453125  C 21.9482421875 24.3896484375  20.475260416666664 25  18.75 25  C 17.024739583333336 25  15.551757812500004 24.3896484375  14.3310546875 23.1689453125  C 13.1103515625 21.9482421875  12.5 20.475260416666664  12.5 18.75  C 12.5 17.024739583333332  13.1103515625 15.5517578125  14.3310546875 14.3310546875  C 15.551757812500004 13.1103515625  17.024739583333336 12.5  18.75 12.5  C 20.475260416666664 12.5  21.9482421875 13.1103515625  23.1689453125 14.3310546875  Z M 23.128255208333336 0.30924479166666574  C 23.33441840277778 0.5154079861111077  23.4375 0.7595486111111077  23.4375 1.0416666666666656  C 23.4375 1.2586805555555554  23.366970486111114 1.46484375  23.225911458333336 1.66015625  L 6.038411458333334 24.576822916666664  C 5.832248263888889 24.85894097222222  5.555555555555556 25  5.208333333333334 25  L 2.604166666666667 25  C 2.3220486111111116 25  2.077907986111111 24.89691840277778  1.8717447916666667 24.690755208333336  C 1.665581597222222 24.484592013888886  1.5625 24.240451388888886  1.5625 23.958333333333336  C 1.5625 23.741319444444446  1.6330295138888888 23.53515625  1.7740885416666667 23.33984375  L 18.961588541666664 0.42317708333333426  C 19.167751736111114 0.14105902777777624  19.444444444444446 0  19.791666666666664 0  L 22.395833333333336 0  C 22.677951388888893 0  22.922092013888893 0.10308159722222099  23.128255208333336 0.30924479166666574  Z M 10.6689453125 1.8310546875  C 11.8896484375 3.0517578125  12.5 4.524739583333334  12.5 6.25  C 12.5 7.975260416666666  11.8896484375 9.4482421875  10.6689453125 10.6689453125  C 9.4482421875 11.8896484375  7.975260416666667 12.5  6.25 12.5  C 4.524739583333334 12.5  3.0517578125000004 11.8896484375  1.8310546875 10.6689453125  C 0.6103515625 9.4482421875  0 7.975260416666666  0 6.25  C 0 4.524739583333334  0.6103515625 3.0517578125  1.8310546875 1.8310546875  C 3.0517578125000004 0.6103515625  4.524739583333334 0  6.25 0  C 7.975260416666667 0  9.4482421875 0.6103515625  10.6689453125 1.8310546875  Z " fill-rule="nonzero" fill="rgba(0, 0, 0, 1)" stroke="none" transform="matrix(1 0 0 1 286 99 )" class="fill" />
    <path d="M 20.21484375 20.21484375  C 20.627170138888893 19.802517361111107  20.833333333333336 19.314236111111107  20.833333333333336 18.75  C 20.833333333333336 18.18576388888889  20.627170138888893 17.69748263888889  20.21484375 17.28515625  C 19.802517361111114 16.87282986111111  19.314236111111114 16.666666666666668  18.75 16.666666666666668  C 18.185763888888893 16.666666666666668  17.697482638888893 16.87282986111111  17.28515625 17.28515625  C 16.872829861111114 17.69748263888889  16.666666666666664 18.18576388888889  16.666666666666664 18.75  C 16.666666666666664 19.314236111111107  16.872829861111114 19.802517361111107  17.28515625 20.21484375  C 17.697482638888893 20.627170138888886  18.185763888888893 20.833333333333336  18.75 20.833333333333336  C 19.314236111111114 20.833333333333336  19.802517361111114 20.627170138888886  20.21484375 20.21484375  Z " stroke-width="0" stroke-dasharray="0" stroke="rgba(255, 255, 255, 0)" fill="none" transform="matrix(1 0 0 1 286 99 )" class="stroke" mask="url(#Clip14)" />
    <path d="M 7.71484375 7.71484375  C 8.12717013888889 7.302517361111108  8.333333333333332 6.814236111111108  8.333333333333332 6.25  C 8.333333333333332 5.685763888888887  8.12717013888889 5.197482638888887  7.71484375 4.78515625  C 7.302517361111112 4.372829861111108  6.814236111111112 4.166666666666666  6.25 4.166666666666666  C 5.685763888888889 4.166666666666666  5.197482638888889 4.372829861111108  4.78515625 4.78515625  C 4.372829861111112 5.197482638888887  4.166666666666666 5.685763888888887  4.166666666666666 6.25  C 4.166666666666666 6.814236111111108  4.372829861111112 7.302517361111108  4.78515625 7.71484375  C 5.197482638888889 8.127170138888888  5.685763888888889 8.333333333333334  6.25 8.333333333333334  C 6.814236111111112 8.333333333333334  7.302517361111112 8.127170138888888  7.71484375 7.71484375  Z " stroke-width="0" stroke-dasharray="0" stroke="rgba(255, 255, 255, 0)" fill="none" transform="matrix(1 0 0 1 286 99 )" class="stroke" mask="url(#Clip14)" />
    <path d="M 23.1689453125 14.3310546875  C 24.3896484375 15.5517578125  25 17.024739583333332  25 18.75  C 25 20.475260416666664  24.3896484375 21.9482421875  23.1689453125 23.1689453125  C 21.9482421875 24.3896484375  20.475260416666664 25  18.75 25  C 17.024739583333336 25  15.551757812500004 24.3896484375  14.3310546875 23.1689453125  C 13.1103515625 21.9482421875  12.5 20.475260416666664  12.5 18.75  C 12.5 17.024739583333332  13.1103515625 15.5517578125  14.3310546875 14.3310546875  C 15.551757812500004 13.1103515625  17.024739583333336 12.5  18.75 12.5  C 20.475260416666664 12.5  21.9482421875 13.1103515625  23.1689453125 14.3310546875  Z " stroke-width="0" stroke-dasharray="0" stroke="rgba(255, 255, 255, 0)" fill="none" transform="matrix(1 0 0 1 286 99 )" class="stroke" mask="url(#Clip14)" />
    <path d="M 23.128255208333336 0.30924479166666574  C 23.33441840277778 0.5154079861111077  23.4375 0.7595486111111077  23.4375 1.0416666666666656  C 23.4375 1.2586805555555554  23.366970486111114 1.46484375  23.225911458333336 1.66015625  L 6.038411458333334 24.576822916666664  C 5.832248263888889 24.85894097222222  5.555555555555556 25  5.208333333333334 25  L 2.604166666666667 25  C 2.3220486111111116 25  2.077907986111111 24.89691840277778  1.8717447916666667 24.690755208333336  C 1.665581597222222 24.484592013888886  1.5625 24.240451388888886  1.5625 23.958333333333336  C 1.5625 23.741319444444446  1.6330295138888888 23.53515625  1.7740885416666667 23.33984375  L 18.961588541666664 0.42317708333333426  C 19.167751736111114 0.14105902777777624  19.444444444444446 0  19.791666666666664 0  L 22.395833333333336 0  C 22.677951388888893 0  22.922092013888893 0.10308159722222099  23.128255208333336 0.30924479166666574  Z " stroke-width="0" stroke-dasharray="0" stroke="rgba(255, 255, 255, 0)" fill="none" transform="matrix(1 0 0 1 286 99 )" class="stroke" mask="url(#Clip14)" />
    <path d="M 10.6689453125 1.8310546875  C 11.8896484375 3.0517578125  12.5 4.524739583333334  12.5 6.25  C 12.5 7.975260416666666  11.8896484375 9.4482421875  10.6689453125 10.6689453125  C 9.4482421875 11.8896484375  7.975260416666667 12.5  6.25 12.5  C 4.524739583333334 12.5  3.0517578125000004 11.8896484375  1.8310546875 10.6689453125  C 0.6103515625 9.4482421875  0 7.975260416666666  0 6.25  C 0 4.524739583333334  0.6103515625 3.0517578125  1.8310546875 1.8310546875  C 3.0517578125000004 0.6103515625  4.524739583333334 0  6.25 0  C 7.975260416666667 0  9.4482421875 0.6103515625  10.6689453125 1.8310546875  Z " stroke-width="0" stroke-dasharray="0" stroke="rgba(255, 255, 255, 0)" fill="none" transform="matrix(1 0 0 1 286 99 )" class="stroke" mask="url(#Clip14)" />
  </g>
</svg>