<?xml version="1.0" encoding="utf-8"?>
<svg version="1.1" xmlns:xlink="http://www.w3.org/1999/xlink" width="40px" height="34px" xmlns="http://www.w3.org/2000/svg">
  <defs>
    <pattern id="BGPattern" patternUnits="userSpaceOnUse" alignment="0 0" imageRepeat="None" />
    <mask fill="white" id="Clip124">
      <path d="M 28.28125 21.25  C 28.28125 21.44184027777777  28.20684523809524 21.61154513888889  28.058035714285715 21.759114583333332  L 24.799107142857146 24.990885416666668  C 24.650297619047624 25.13845486111111  24.47916666666667 25.212239583333332  24.285714285714285 25.212239583333332  C 24.092261904761905 25.212239583333332  23.921130952380953 25.13845486111111  23.772321428571427 24.990885416666668  L 20 21.25  L 16.227678571428573 24.990885416666668  C 16.078869047619047 25.13845486111111  15.907738095238098 25.212239583333332  15.714285714285714 25.212239583333332  C 15.520833333333336 25.212239583333332  15.349702380952383 25.13845486111111  15.200892857142858 24.990885416666668  L 11.941964285714286 21.759114583333332  C 11.793154761904763 21.61154513888889  11.71875 21.44184027777777  11.71875 21.25  C 11.71875 21.05815972222222  11.793154761904763 20.88845486111111  11.941964285714286 20.740885416666668  L 15.714285714285714 17  L 11.941964285714286 13.259114583333334  C 11.793154761904763 13.111545138888886  11.71875 12.941840277777775  11.71875 12.75  C 11.71875 12.558159722222221  11.793154761904763 12.38845486111111  11.941964285714286 12.240885416666666  L 15.200892857142858 9.009114583333334  C 15.349702380952383 8.861545138888886  15.520833333333336 8.787760416666666  15.714285714285714 8.787760416666666  C 15.907738095238098 8.787760416666666  16.078869047619047 8.861545138888886  16.227678571428573 9.009114583333334  L 20 12.75  L 23.772321428571427 9.009114583333334  C 23.921130952380953 8.861545138888886  24.092261904761905 8.787760416666666  24.285714285714285 8.787760416666666  C 24.47916666666667 8.787760416666666  24.650297619047624 8.861545138888886  24.799107142857146 9.009114583333334  L 28.058035714285715 12.240885416666666  C 28.20684523809524 12.38845486111111  28.28125 12.558159722222221  28.28125 12.75  C 28.28125 12.941840277777775  28.20684523809524 13.111545138888886  28.058035714285715 13.259114583333334  L 24.285714285714285 17  L 28.058035714285715 20.740885416666668  C 28.20684523809524 20.88845486111111  28.28125 21.05815972222222  28.28125 21.25  Z M 6 6  L 6 28  L 34 28  L 34 6  L 6 6  Z M 38.950892857142854 1.0403645833333346  C 39.65029761904762 1.7339409722222205  40 2.567708333333335  40 3.541666666666665  L 40 30.458333333333336  C 40 31.432291666666664  39.65029761904762 32.26605902777778  38.950892857142854 32.959635416666664  C 38.2514880952381 33.65321180555556  37.41071428571429 34  36.42857142857143 34  L 3.5714285714285716 34  C 2.5892857142857144 34  1.7485119047619049 33.65321180555556  1.0491071428571428 32.959635416666664  C 0.34970238095238093 32.26605902777778  0 31.432291666666664  0 30.458333333333336  L 0 3.541666666666665  C 0 2.567708333333335  0.34970238095238093 1.7339409722222205  1.0491071428571428 1.0403645833333346  C 1.7485119047619049 0.3467881944444411  2.5892857142857144 0  3.5714285714285716 0  L 36.42857142857143 0  C 37.41071428571429 0  38.2514880952381 0.3467881944444411  38.950892857142854 1.0403645833333346  Z " fill-rule="evenodd" />
    </mask>
  </defs>
  <g transform="matrix(1 0 0 1 -1074 -2 )">
    <path d="M 28.28125 21.25  C 28.28125 21.44184027777777  28.20684523809524 21.61154513888889  28.058035714285715 21.759114583333332  L 24.799107142857146 24.990885416666668  C 24.650297619047624 25.13845486111111  24.47916666666667 25.212239583333332  24.285714285714285 25.212239583333332  C 24.092261904761905 25.212239583333332  23.921130952380953 25.13845486111111  23.772321428571427 24.990885416666668  L 20 21.25  L 16.227678571428573 24.990885416666668  C 16.078869047619047 25.13845486111111  15.907738095238098 25.212239583333332  15.714285714285714 25.212239583333332  C 15.520833333333336 25.212239583333332  15.349702380952383 25.13845486111111  15.200892857142858 24.990885416666668  L 11.941964285714286 21.759114583333332  C 11.793154761904763 21.61154513888889  11.71875 21.44184027777777  11.71875 21.25  C 11.71875 21.05815972222222  11.793154761904763 20.88845486111111  11.941964285714286 20.740885416666668  L 15.714285714285714 17  L 11.941964285714286 13.259114583333334  C 11.793154761904763 13.111545138888886  11.71875 12.941840277777775  11.71875 12.75  C 11.71875 12.558159722222221  11.793154761904763 12.38845486111111  11.941964285714286 12.240885416666666  L 15.200892857142858 9.009114583333334  C 15.349702380952383 8.861545138888886  15.520833333333336 8.787760416666666  15.714285714285714 8.787760416666666  C 15.907738095238098 8.787760416666666  16.078869047619047 8.861545138888886  16.227678571428573 9.009114583333334  L 20 12.75  L 23.772321428571427 9.009114583333334  C 23.921130952380953 8.861545138888886  24.092261904761905 8.787760416666666  24.285714285714285 8.787760416666666  C 24.47916666666667 8.787760416666666  24.650297619047624 8.861545138888886  24.799107142857146 9.009114583333334  L 28.058035714285715 12.240885416666666  C 28.20684523809524 12.38845486111111  28.28125 12.558159722222221  28.28125 12.75  C 28.28125 12.941840277777775  28.20684523809524 13.111545138888886  28.058035714285715 13.259114583333334  L 24.285714285714285 17  L 28.058035714285715 20.740885416666668  C 28.20684523809524 20.88845486111111  28.28125 21.05815972222222  28.28125 21.25  Z M 6 6  L 6 28  L 34 28  L 34 6  L 6 6  Z M 38.950892857142854 1.0403645833333346  C 39.65029761904762 1.7339409722222205  40 2.567708333333335  40 3.541666666666665  L 40 30.458333333333336  C 40 31.432291666666664  39.65029761904762 32.26605902777778  38.950892857142854 32.959635416666664  C 38.2514880952381 33.65321180555556  37.41071428571429 34  36.42857142857143 34  L 3.5714285714285716 34  C 2.5892857142857144 34  1.7485119047619049 33.65321180555556  1.0491071428571428 32.959635416666664  C 0.34970238095238093 32.26605902777778  0 31.432291666666664  0 30.458333333333336  L 0 3.541666666666665  C 0 2.567708333333335  0.34970238095238093 1.7339409722222205  1.0491071428571428 1.0403645833333346  C 1.7485119047619049 0.3467881944444411  2.5892857142857144 0  3.5714285714285716 0  L 36.42857142857143 0  C 37.41071428571429 0  38.2514880952381 0.3467881944444411  38.950892857142854 1.0403645833333346  Z " fill-rule="nonzero" fill="rgba(0, 0, 0, 1)" stroke="none" transform="matrix(1 0 0 1 1074 2 )" class="fill" />
    <path d="M 28.28125 21.25  C 28.28125 21.44184027777777  28.20684523809524 21.61154513888889  28.058035714285715 21.759114583333332  L 24.799107142857146 24.990885416666668  C 24.650297619047624 25.13845486111111  24.47916666666667 25.212239583333332  24.285714285714285 25.212239583333332  C 24.092261904761905 25.212239583333332  23.921130952380953 25.13845486111111  23.772321428571427 24.990885416666668  L 20 21.25  L 16.227678571428573 24.990885416666668  C 16.078869047619047 25.13845486111111  15.907738095238098 25.212239583333332  15.714285714285714 25.212239583333332  C 15.520833333333336 25.212239583333332  15.349702380952383 25.13845486111111  15.200892857142858 24.990885416666668  L 11.941964285714286 21.759114583333332  C 11.793154761904763 21.61154513888889  11.71875 21.44184027777777  11.71875 21.25  C 11.71875 21.05815972222222  11.793154761904763 20.88845486111111  11.941964285714286 20.740885416666668  L 15.714285714285714 17  L 11.941964285714286 13.259114583333334  C 11.793154761904763 13.111545138888886  11.71875 12.941840277777775  11.71875 12.75  C 11.71875 12.558159722222221  11.793154761904763 12.38845486111111  11.941964285714286 12.240885416666666  L 15.200892857142858 9.009114583333334  C 15.349702380952383 8.861545138888886  15.520833333333336 8.787760416666666  15.714285714285714 8.787760416666666  C 15.907738095238098 8.787760416666666  16.078869047619047 8.861545138888886  16.227678571428573 9.009114583333334  L 20 12.75  L 23.772321428571427 9.009114583333334  C 23.921130952380953 8.861545138888886  24.092261904761905 8.787760416666666  24.285714285714285 8.787760416666666  C 24.47916666666667 8.787760416666666  24.650297619047624 8.861545138888886  24.799107142857146 9.009114583333334  L 28.058035714285715 12.240885416666666  C 28.20684523809524 12.38845486111111  28.28125 12.558159722222221  28.28125 12.75  C 28.28125 12.941840277777775  28.20684523809524 13.111545138888886  28.058035714285715 13.259114583333334  L 24.285714285714285 17  L 28.058035714285715 20.740885416666668  C 28.20684523809524 20.88845486111111  28.28125 21.05815972222222  28.28125 21.25  Z " stroke-width="0" stroke-dasharray="0" stroke="rgba(255, 255, 255, 0)" fill="none" transform="matrix(1 0 0 1 1074 2 )" class="stroke" mask="url(#Clip124)" />
    <path d="M 6 6  L 6 28  L 34 28  L 34 6  L 6 6  Z " stroke-width="0" stroke-dasharray="0" stroke="rgba(255, 255, 255, 0)" fill="none" transform="matrix(1 0 0 1 1074 2 )" class="stroke" mask="url(#Clip124)" />
    <path d="M 38.950892857142854 1.0403645833333346  C 39.65029761904762 1.7339409722222205  40 2.567708333333335  40 3.541666666666665  L 40 30.458333333333336  C 40 31.432291666666664  39.65029761904762 32.26605902777778  38.950892857142854 32.959635416666664  C 38.2514880952381 33.65321180555556  37.41071428571429 34  36.42857142857143 34  L 3.5714285714285716 34  C 2.5892857142857144 34  1.7485119047619049 33.65321180555556  1.0491071428571428 32.959635416666664  C 0.34970238095238093 32.26605902777778  0 31.432291666666664  0 30.458333333333336  L 0 3.541666666666665  C 0 2.567708333333335  0.34970238095238093 1.7339409722222205  1.0491071428571428 1.0403645833333346  C 1.7485119047619049 0.3467881944444411  2.5892857142857144 0  3.5714285714285716 0  L 36.42857142857143 0  C 37.41071428571429 0  38.2514880952381 0.3467881944444411  38.950892857142854 1.0403645833333346  Z " stroke-width="0" stroke-dasharray="0" stroke="rgba(255, 255, 255, 0)" fill="none" transform="matrix(1 0 0 1 1074 2 )" class="stroke" mask="url(#Clip124)" />
  </g>
</svg>