<?xml version="1.0" encoding="utf-8"?>
<svg version="1.1" xmlns:xlink="http://www.w3.org/1999/xlink" width="154px" height="30px" xmlns="http://www.w3.org/2000/svg">
  <defs>
    <pattern id="BGPattern" patternUnits="userSpaceOnUse" alignment="0 0" imageRepeat="None" />
    <mask fill="white" id="Clip83">
      <path d="M 0 30  L 0 0  L 96.08547008547009 0  L 106.61538461538461 0  L 110.37606837606842 0  L 154 0  L 154 30  L 0 30  Z " fill-rule="evenodd" />
    </mask>
  </defs>
  <g transform="matrix(1 0 0 1 -285 -6 )">
    <path d="M 0 30  L 0 0  L 96.08547008547009 0  L 106.61538461538461 0  L 110.37606837606842 0  L 154 0  L 154 30  L 0 30  Z " fill-rule="nonzero" fill="rgba(255, 255, 128, 1)" stroke="none" transform="matrix(1 0 0 1 285 6 )" class="fill" />
    <path d="M 0 30  L 0 0  L 96.08547008547009 0  L 106.61538461538461 0  L 110.37606837606842 0  L 154 0  L 154 30  L 0 30  Z " stroke-width="0" stroke-dasharray="0" stroke="rgba(121, 121, 121, 1)" fill="none" transform="matrix(1 0 0 1 285 6 )" class="stroke" mask="url(#Clip83)" />
  </g>
</svg>