<?xml version="1.0" encoding="utf-8"?>
<svg version="1.1" xmlns:xlink="http://www.w3.org/1999/xlink" width="156px" height="15px" xmlns="http://www.w3.org/2000/svg">
  <defs>
    <pattern id="BGPattern" patternUnits="userSpaceOnUse" alignment="0 0" imageRepeat="None" />
    <mask fill="white" id="Clip84">
      <path d="M 0 15  L 0 0  L 97.33333333333333 0  L 108 0  L 111.80952380952384 0  L 156 0  L 156 15  L 0 15  Z " fill-rule="evenodd" />
    </mask>
  </defs>
  <g transform="matrix(1 0 0 1 -289 -13 )">
    <path d="M 0 15  L 0 0  L 97.33333333333333 0  L 108 0  L 111.80952380952384 0  L 156 0  L 156 15  L 0 15  Z " fill-rule="nonzero" fill="rgba(255, 255, 128, 1)" stroke="none" transform="matrix(1 0 0 1 289 13 )" class="fill" />
    <path d="M 0 15  L 0 0  L 97.33333333333333 0  L 108 0  L 111.80952380952384 0  L 156 0  L 156 15  L 0 15  Z " stroke-width="0" stroke-dasharray="0" stroke="rgba(121, 121, 121, 1)" fill="none" transform="matrix(1 0 0 1 289 13 )" class="stroke" mask="url(#Clip84)" />
  </g>
</svg>