<?xml version="1.0" encoding="utf-8"?>
<svg version="1.1" xmlns:xlink="http://www.w3.org/1999/xlink" width="247px" height="45px" xmlns="http://www.w3.org/2000/svg">
  <defs>
    <pattern id="BGPattern" patternUnits="userSpaceOnUse" alignment="0 0" imageRepeat="None" />
    <mask fill="white" id="Clip216">
      <path d="M 0 45  L 0 0  L 95 0  L 217.86666666666667 0  L 231.8 0  L 247 0  L 247 45  L 0 45  Z " fill-rule="evenodd" />
    </mask>
  </defs>
  <g transform="matrix(1 0 0 1 -233 -241 )">
    <path d="M 0 45  L 0 0  L 95 0  L 217.86666666666667 0  L 231.8 0  L 247 0  L 247 45  L 0 45  Z " fill-rule="nonzero" fill="rgba(255, 255, 128, 1)" stroke="none" transform="matrix(1 0 0 1 233 241 )" class="fill" />
    <path d="M 0 45  L 0 0  L 95 0  L 217.86666666666667 0  L 231.8 0  L 247 0  L 247 45  L 0 45  Z " stroke-width="0" stroke-dasharray="0" stroke="rgba(121, 121, 121, 1)" fill="none" transform="matrix(1 0 0 1 233 241 )" class="stroke" mask="url(#Clip216)" />
  </g>
</svg>