<?xml version="1.0" encoding="utf-8"?>
<svg version="1.1" xmlns:xlink="http://www.w3.org/1999/xlink" width="25px" height="22px" xmlns="http://www.w3.org/2000/svg">
  <defs>
    <pattern id="BGPattern" patternUnits="userSpaceOnUse" alignment="0 0" imageRepeat="None" />
    <mask fill="white" id="Clip225">
      <path d="M 17.67578125 13.75  C 17.67578125 13.874131944444441  17.629278273809526 13.983940972222223  17.536272321428573 14.079427083333332  L 15.499441964285715 16.170572916666668  C 15.406436011904765 16.26605902777778  15.299479166666668 16.313802083333332  15.178571428571427 16.313802083333332  C 15.057663690476192 16.313802083333332  14.950706845238097 16.26605902777778  14.857700892857142 16.170572916666668  L 12.5 13.75  L 10.142299107142858 16.170572916666668  C 10.049293154761905 16.26605902777778  9.94233630952381 16.313802083333332  9.821428571428571 16.313802083333332  C 9.700520833333334 16.313802083333332  9.593563988095239 16.26605902777778  9.500558035714286 16.170572916666668  L 7.463727678571429 14.079427083333332  C 7.370721726190476 13.983940972222223  7.32421875 13.874131944444441  7.32421875 13.75  C 7.32421875 13.625868055555554  7.370721726190476 13.516059027777777  7.463727678571429 13.420572916666668  L 9.821428571428571 11  L 7.463727678571429 8.579427083333334  C 7.370721726190476 8.48394097222222  7.32421875 8.374131944444443  7.32421875 8.25  C 7.32421875 8.125868055555554  7.370721726190476 8.016059027777777  7.463727678571429 7.920572916666666  L 9.500558035714286 5.829427083333334  C 9.593563988095239 5.7339409722222205  9.700520833333334 5.686197916666666  9.821428571428571 5.686197916666666  C 9.94233630952381 5.686197916666666  10.049293154761905 5.7339409722222205  10.142299107142858 5.829427083333334  L 12.5 8.25  L 14.857700892857142 5.829427083333334  C 14.950706845238097 5.7339409722222205  15.057663690476192 5.686197916666666  15.178571428571427 5.686197916666666  C 15.299479166666668 5.686197916666666  15.406436011904765 5.7339409722222205  15.499441964285715 5.829427083333334  L 17.536272321428573 7.920572916666666  C 17.629278273809526 8.016059027777777  17.67578125 8.125868055555554  17.67578125 8.25  C 17.67578125 8.374131944444443  17.629278273809526 8.48394097222222  17.536272321428573 8.579427083333334  L 15.178571428571427 11  L 17.536272321428573 13.420572916666668  C 17.629278273809526 13.516059027777777  17.67578125 13.625868055555554  17.67578125 13.75  Z M 4 4  L 4 18  L 21 18  L 21 4  L 4 4  Z M 24.344308035714285 0.6731770833333341  C 24.781436011904763 1.1219618055555545  25 1.6614583333333341  25 2.291666666666666  L 25 19.708333333333336  C 25 20.338541666666664  24.781436011904763 20.878038194444446  24.344308035714285 21.326822916666664  C 23.907180059523814 21.77560763888889  23.381696428571434 22  22.767857142857142 22  L 2.232142857142857 22  C 1.6183035714285716 22  1.0928199404761907 21.77560763888889  0.6556919642857143 21.326822916666664  C 0.2185639880952381 20.878038194444446  0 20.338541666666664  0 19.708333333333336  L 0 2.291666666666666  C 0 1.6614583333333341  0.2185639880952381 1.1219618055555545  0.6556919642857143 0.6731770833333341  C 1.0928199404761907 0.22439236111110894  1.6183035714285716 0  2.232142857142857 0  L 22.767857142857142 0  C 23.381696428571434 0  23.907180059523814 0.22439236111110894  24.344308035714285 0.6731770833333341  Z " fill-rule="evenodd" />
    </mask>
  </defs>
  <g transform="matrix(1 0 0 1 -404 -2 )">
    <path d="M 17.67578125 13.75  C 17.67578125 13.874131944444441  17.629278273809526 13.983940972222223  17.536272321428573 14.079427083333332  L 15.499441964285715 16.170572916666668  C 15.406436011904765 16.26605902777778  15.299479166666668 16.313802083333332  15.178571428571427 16.313802083333332  C 15.057663690476192 16.313802083333332  14.950706845238097 16.26605902777778  14.857700892857142 16.170572916666668  L 12.5 13.75  L 10.142299107142858 16.170572916666668  C 10.049293154761905 16.26605902777778  9.94233630952381 16.313802083333332  9.821428571428571 16.313802083333332  C 9.700520833333334 16.313802083333332  9.593563988095239 16.26605902777778  9.500558035714286 16.170572916666668  L 7.463727678571429 14.079427083333332  C 7.370721726190476 13.983940972222223  7.32421875 13.874131944444441  7.32421875 13.75  C 7.32421875 13.625868055555554  7.370721726190476 13.516059027777777  7.463727678571429 13.420572916666668  L 9.821428571428571 11  L 7.463727678571429 8.579427083333334  C 7.370721726190476 8.48394097222222  7.32421875 8.374131944444443  7.32421875 8.25  C 7.32421875 8.125868055555554  7.370721726190476 8.016059027777777  7.463727678571429 7.920572916666666  L 9.500558035714286 5.829427083333334  C 9.593563988095239 5.7339409722222205  9.700520833333334 5.686197916666666  9.821428571428571 5.686197916666666  C 9.94233630952381 5.686197916666666  10.049293154761905 5.7339409722222205  10.142299107142858 5.829427083333334  L 12.5 8.25  L 14.857700892857142 5.829427083333334  C 14.950706845238097 5.7339409722222205  15.057663690476192 5.686197916666666  15.178571428571427 5.686197916666666  C 15.299479166666668 5.686197916666666  15.406436011904765 5.7339409722222205  15.499441964285715 5.829427083333334  L 17.536272321428573 7.920572916666666  C 17.629278273809526 8.016059027777777  17.67578125 8.125868055555554  17.67578125 8.25  C 17.67578125 8.374131944444443  17.629278273809526 8.48394097222222  17.536272321428573 8.579427083333334  L 15.178571428571427 11  L 17.536272321428573 13.420572916666668  C 17.629278273809526 13.516059027777777  17.67578125 13.625868055555554  17.67578125 13.75  Z M 4 4  L 4 18  L 21 18  L 21 4  L 4 4  Z M 24.344308035714285 0.6731770833333341  C 24.781436011904763 1.1219618055555545  25 1.6614583333333341  25 2.291666666666666  L 25 19.708333333333336  C 25 20.338541666666664  24.781436011904763 20.878038194444446  24.344308035714285 21.326822916666664  C 23.907180059523814 21.77560763888889  23.381696428571434 22  22.767857142857142 22  L 2.232142857142857 22  C 1.6183035714285716 22  1.0928199404761907 21.77560763888889  0.6556919642857143 21.326822916666664  C 0.2185639880952381 20.878038194444446  0 20.338541666666664  0 19.708333333333336  L 0 2.291666666666666  C 0 1.6614583333333341  0.2185639880952381 1.1219618055555545  0.6556919642857143 0.6731770833333341  C 1.0928199404761907 0.22439236111110894  1.6183035714285716 0  2.232142857142857 0  L 22.767857142857142 0  C 23.381696428571434 0  23.907180059523814 0.22439236111110894  24.344308035714285 0.6731770833333341  Z " fill-rule="nonzero" fill="rgba(0, 0, 0, 1)" stroke="none" transform="matrix(1 0 0 1 404 2 )" class="fill" />
    <path d="M 17.67578125 13.75  C 17.67578125 13.874131944444441  17.629278273809526 13.983940972222223  17.536272321428573 14.079427083333332  L 15.499441964285715 16.170572916666668  C 15.406436011904765 16.26605902777778  15.299479166666668 16.313802083333332  15.178571428571427 16.313802083333332  C 15.057663690476192 16.313802083333332  14.950706845238097 16.26605902777778  14.857700892857142 16.170572916666668  L 12.5 13.75  L 10.142299107142858 16.170572916666668  C 10.049293154761905 16.26605902777778  9.94233630952381 16.313802083333332  9.821428571428571 16.313802083333332  C 9.700520833333334 16.313802083333332  9.593563988095239 16.26605902777778  9.500558035714286 16.170572916666668  L 7.463727678571429 14.079427083333332  C 7.370721726190476 13.983940972222223  7.32421875 13.874131944444441  7.32421875 13.75  C 7.32421875 13.625868055555554  7.370721726190476 13.516059027777777  7.463727678571429 13.420572916666668  L 9.821428571428571 11  L 7.463727678571429 8.579427083333334  C 7.370721726190476 8.48394097222222  7.32421875 8.374131944444443  7.32421875 8.25  C 7.32421875 8.125868055555554  7.370721726190476 8.016059027777777  7.463727678571429 7.920572916666666  L 9.500558035714286 5.829427083333334  C 9.593563988095239 5.7339409722222205  9.700520833333334 5.686197916666666  9.821428571428571 5.686197916666666  C 9.94233630952381 5.686197916666666  10.049293154761905 5.7339409722222205  10.142299107142858 5.829427083333334  L 12.5 8.25  L 14.857700892857142 5.829427083333334  C 14.950706845238097 5.7339409722222205  15.057663690476192 5.686197916666666  15.178571428571427 5.686197916666666  C 15.299479166666668 5.686197916666666  15.406436011904765 5.7339409722222205  15.499441964285715 5.829427083333334  L 17.536272321428573 7.920572916666666  C 17.629278273809526 8.016059027777777  17.67578125 8.125868055555554  17.67578125 8.25  C 17.67578125 8.374131944444443  17.629278273809526 8.48394097222222  17.536272321428573 8.579427083333334  L 15.178571428571427 11  L 17.536272321428573 13.420572916666668  C 17.629278273809526 13.516059027777777  17.67578125 13.625868055555554  17.67578125 13.75  Z " stroke-width="0" stroke-dasharray="0" stroke="rgba(255, 255, 255, 0)" fill="none" transform="matrix(1 0 0 1 404 2 )" class="stroke" mask="url(#Clip225)" />
    <path d="M 4 4  L 4 18  L 21 18  L 21 4  L 4 4  Z " stroke-width="0" stroke-dasharray="0" stroke="rgba(255, 255, 255, 0)" fill="none" transform="matrix(1 0 0 1 404 2 )" class="stroke" mask="url(#Clip225)" />
    <path d="M 24.344308035714285 0.6731770833333341  C 24.781436011904763 1.1219618055555545  25 1.6614583333333341  25 2.291666666666666  L 25 19.708333333333336  C 25 20.338541666666664  24.781436011904763 20.878038194444446  24.344308035714285 21.326822916666664  C 23.907180059523814 21.77560763888889  23.381696428571434 22  22.767857142857142 22  L 2.232142857142857 22  C 1.6183035714285716 22  1.0928199404761907 21.77560763888889  0.6556919642857143 21.326822916666664  C 0.2185639880952381 20.878038194444446  0 20.338541666666664  0 19.708333333333336  L 0 2.291666666666666  C 0 1.6614583333333341  0.2185639880952381 1.1219618055555545  0.6556919642857143 0.6731770833333341  C 1.0928199404761907 0.22439236111110894  1.6183035714285716 0  2.232142857142857 0  L 22.767857142857142 0  C 23.381696428571434 0  23.907180059523814 0.22439236111110894  24.344308035714285 0.6731770833333341  Z " stroke-width="0" stroke-dasharray="0" stroke="rgba(255, 255, 255, 0)" fill="none" transform="matrix(1 0 0 1 404 2 )" class="stroke" mask="url(#Clip225)" />
  </g>
</svg>