<?xml version="1.0" encoding="utf-8"?>
<svg version="1.1" xmlns:xlink="http://www.w3.org/1999/xlink" width="50px" height="50px" xmlns="http://www.w3.org/2000/svg">
  <g transform="matrix(1 0 0 1 -472 -328 )">
    <path d="M 472 328  L 522 328  L 522 378  L 472 378  L 472 328  " fill-rule="nonzero" fill="rgba(204, 204, 204, 1)" stroke="none" class="fill" />
    <path d="M 476 332  L 518 332  L 518 374  L 476 374  L 476 332  " fill-rule="nonzero" fill="rgba(255, 255, 255, 1)" stroke="none" class="fill" />
    <path d="M 501.75 343  C 499.65 343  498 341.35  498 339.25  C 498 337.15  499.65 335.5  501.75 335.5  C 503.85 335.5  505.5 337.15  505.5 339.25  C 505.5 341.35  503.85 343  501.75 343  " fill-rule="nonzero" fill="rgba(204, 204, 204, 1)" stroke="none" class="fill" />
    <path d="M 478 373  L 478 351.55  L 487.75 341.8  L 501.4 349.6  L 509.2 347.65  L 517 349.6  L 517 373  L 478 373  " fill-rule="nonzero" fill="rgba(22, 155, 213, 1)" stroke="none" class="fill" />
  </g>
</svg>