<?xml version="1.0" encoding="utf-8"?>
<svg version="1.1" xmlns:xlink="http://www.w3.org/1999/xlink" width="26px" height="26px" xmlns="http://www.w3.org/2000/svg">
  <defs>
    <pattern id="BGPattern" patternUnits="userSpaceOnUse" alignment="0 0" imageRepeat="None" />
    <mask fill="white" id="Clip37">
      <path d="M 0 10  C 0 4.3999999999999995  4.3999999999999995 0  10 0  C 15.600000000000001 0  20 4.3999999999999995  20 10  C 20 15.600000000000001  15.600000000000001 20  10 20  C 4.3999999999999995 20  0 15.600000000000001  0 10  Z " fill-rule="evenodd" />
    </mask>
  </defs>
  <g transform="matrix(1 0 0 1 3 1 )">
    <path d="M 0 10  C 0 4.3999999999999995  4.3999999999999995 0  10 0  C 15.600000000000001 0  20 4.3999999999999995  20 10  C 20 15.600000000000001  15.600000000000001 20  10 20  C 4.3999999999999995 20  0 15.600000000000001  0 10  Z " fill-rule="nonzero" fill="rgba(255, 255, 255, 1)" stroke="none" transform="matrix(1 0 0 1 0 1 )" class="fill" />
    <path d="M 0 10  C 0 4.3999999999999995  4.3999999999999995 0  10 0  C 15.600000000000001 0  20 4.3999999999999995  20 10  C 20 15.600000000000001  15.600000000000001 20  10 20  C 4.3999999999999995 20  0 15.600000000000001  0 10  Z " stroke-width="2" stroke-dasharray="0" stroke="rgba(237, 237, 237, 1)" fill="none" transform="matrix(1 0 0 1 0 1 )" class="stroke" mask="url(#Clip37)" />
  </g>
  <style>svg { filter: drop-shadow(0px 1px 1.5px rgba(0, 0, 0, 0.34901960784313724)); }</style>
</svg>