<?xml version="1.0" encoding="utf-8"?>
<svg version="1.1" xmlns:xlink="http://www.w3.org/1999/xlink" width="65px" height="33px" xmlns="http://www.w3.org/2000/svg">
  <g transform="matrix(1 0 0 1 -551 -352 )">
    <path d="M 551 352  L 616 352  L 616 385  L 551 385  L 551 352  " fill-rule="nonzero" fill="rgba(204, 204, 204, 1)" stroke="none" class="fill" />
    <path d="M 553 354  L 614 354  L 614 383  L 553 383  L 553 354  " fill-rule="nonzero" fill="rgba(255, 255, 255, 1)" stroke="none" class="fill" />
    <path d="M 587.275 361.9  C 585.889 361.9  584.8 360.811  584.8 359.42499999999995  C 584.8 358.039  585.889 356.95  587.275 356.95  C 588.661 356.95  589.75 358.039  589.75 359.42499999999995  C 589.75 360.811  588.661 361.9  587.275 361.9  " fill-rule="nonzero" fill="rgba(204, 204, 204, 1)" stroke="none" class="fill" />
    <path d="M 554 382  L 554 367.15  L 568.75 360.4  L 589.4 373.7753846153846  L 601.2 364.45  L 613 373.7753846153846  L 613 382  L 554 382  " fill-rule="nonzero" fill="rgba(22, 155, 213, 1)" stroke="none" class="fill" />
  </g>
</svg>