<?xml version="1.0" encoding="utf-8"?>
<svg version="1.1" xmlns:xlink="http://www.w3.org/1999/xlink" width="23px" height="27px" xmlns="http://www.w3.org/2000/svg">
  <defs>
    <pattern id="BGPattern" patternUnits="userSpaceOnUse" alignment="0 0" imageRepeat="None" />
    <mask fill="white" id="Clip3">
      <path d="M 22.741328983516425 16.4470982142856  C 22.788719093406648 15.9227678571428  22.37405563186819 15.476785714285596  21.858688186813303 15.476785714285596  C 21.402558379120997 15.476785714285596  21.011589972527645 15.832366071428396  20.976047390109777 16.296428571428397  C 20.567307692307693 21.3046875  16.426596840659457 25.210044642857202  11.391397664835337 25.210044642857202  C 6.089629120879006 25.210044642857202  1.7712053571430295 20.8466517857144  1.7712053571430295 15.482812500000001  C 1.7712053571430295 10.203348214285597  5.9533825549451125 5.888169642857202  11.142599587912262 5.755580357142798  C 11.278846153846153 5.749553571428396  11.385473901098958 5.858035714285598  11.385473901098958 5.996651785714402  L 11.385473901098958 9.028125  C 11.385473901098958 9.7875  12.208877060439502 10.245535714285596  12.842719780219952 9.841741071428396  L 18.54138049450561 5.785714285714402  C 19.13375686813181 5.406026785714403  19.13375686813181 4.532142857142798  18.54138049450561 4.152455357142799  L 12.84864354395593 0.1506696428572013  C 12.214800824175882 -0.253125  11.391397664835337 0.20491071428559735  11.391397664835337 0.9642857142855973  L 11.391397664835337 3.718526785714403  C 11.391397664835337 3.851116071428396  11.290693681318508 3.9595982142855974  11.160370879120993 3.9595982142855974  C 4.975961538461538 4.086160714285597  0 9.196875  0 15.482812500000001  C 0 21.847098214285598  5.100360576923077 27  11.391397664835337 27  C 17.362551510989185 27  22.255580357143028 22.377455357142797  22.741328983516425 16.4470982142856  Z " fill-rule="evenodd" />
    </mask>
  </defs>
  <g transform="matrix(1 0 0 1 -809 -88 )">
    <path d="M 22.741328983516425 16.4470982142856  C 22.788719093406648 15.9227678571428  22.37405563186819 15.476785714285596  21.858688186813303 15.476785714285596  C 21.402558379120997 15.476785714285596  21.011589972527645 15.832366071428396  20.976047390109777 16.296428571428397  C 20.567307692307693 21.3046875  16.426596840659457 25.210044642857202  11.391397664835337 25.210044642857202  C 6.089629120879006 25.210044642857202  1.7712053571430295 20.8466517857144  1.7712053571430295 15.482812500000001  C 1.7712053571430295 10.203348214285597  5.9533825549451125 5.888169642857202  11.142599587912262 5.755580357142798  C 11.278846153846153 5.749553571428396  11.385473901098958 5.858035714285598  11.385473901098958 5.996651785714402  L 11.385473901098958 9.028125  C 11.385473901098958 9.7875  12.208877060439502 10.245535714285596  12.842719780219952 9.841741071428396  L 18.54138049450561 5.785714285714402  C 19.13375686813181 5.406026785714403  19.13375686813181 4.532142857142798  18.54138049450561 4.152455357142799  L 12.84864354395593 0.1506696428572013  C 12.214800824175882 -0.253125  11.391397664835337 0.20491071428559735  11.391397664835337 0.9642857142855973  L 11.391397664835337 3.718526785714403  C 11.391397664835337 3.851116071428396  11.290693681318508 3.9595982142855974  11.160370879120993 3.9595982142855974  C 4.975961538461538 4.086160714285597  0 9.196875  0 15.482812500000001  C 0 21.847098214285598  5.100360576923077 27  11.391397664835337 27  C 17.362551510989185 27  22.255580357143028 22.377455357142797  22.741328983516425 16.4470982142856  Z " fill-rule="nonzero" fill="rgba(255, 255, 255, 1)" stroke="none" transform="matrix(1 0 0 1 809 88 )" class="fill" />
    <path d="M 22.741328983516425 16.4470982142856  C 22.788719093406648 15.9227678571428  22.37405563186819 15.476785714285596  21.858688186813303 15.476785714285596  C 21.402558379120997 15.476785714285596  21.011589972527645 15.832366071428396  20.976047390109777 16.296428571428397  C 20.567307692307693 21.3046875  16.426596840659457 25.210044642857202  11.391397664835337 25.210044642857202  C 6.089629120879006 25.210044642857202  1.7712053571430295 20.8466517857144  1.7712053571430295 15.482812500000001  C 1.7712053571430295 10.203348214285597  5.9533825549451125 5.888169642857202  11.142599587912262 5.755580357142798  C 11.278846153846153 5.749553571428396  11.385473901098958 5.858035714285598  11.385473901098958 5.996651785714402  L 11.385473901098958 9.028125  C 11.385473901098958 9.7875  12.208877060439502 10.245535714285596  12.842719780219952 9.841741071428396  L 18.54138049450561 5.785714285714402  C 19.13375686813181 5.406026785714403  19.13375686813181 4.532142857142798  18.54138049450561 4.152455357142799  L 12.84864354395593 0.1506696428572013  C 12.214800824175882 -0.253125  11.391397664835337 0.20491071428559735  11.391397664835337 0.9642857142855973  L 11.391397664835337 3.718526785714403  C 11.391397664835337 3.851116071428396  11.290693681318508 3.9595982142855974  11.160370879120993 3.9595982142855974  C 4.975961538461538 4.086160714285597  0 9.196875  0 15.482812500000001  C 0 21.847098214285598  5.100360576923077 27  11.391397664835337 27  C 17.362551510989185 27  22.255580357143028 22.377455357142797  22.741328983516425 16.4470982142856  Z " stroke-width="0" stroke-dasharray="0" stroke="rgba(255, 255, 255, 0)" fill="none" transform="matrix(1 0 0 1 809 88 )" class="stroke" mask="url(#Clip3)" />
  </g>
</svg>